<svg width="25" height="24" viewBox="0 0 25 24" fill="none" xmlns="http://www.w3.org/2000/svg">
<g id="vuesax/bold/gallery">
<g id="gallery">
<path id="Vector" d="M3.35812 19.0093L3.33812 19.0293C3.06812 18.4393 2.89813 17.7693 2.82812 17.0293C2.89813 17.7593 3.08812 18.4193 3.35812 19.0093Z" fill="white"/>
<path id="Vector_2" d="M9.77844 10.3791C11.0929 10.3791 12.1584 9.31358 12.1584 7.99914C12.1584 6.6847 11.0929 5.61914 9.77844 5.61914C8.464 5.61914 7.39844 6.6847 7.39844 7.99914C7.39844 9.31358 8.464 10.3791 9.77844 10.3791Z" fill="white"/>
<path id="Vector_3" d="M16.9713 2H8.59125C4.95125 2 2.78125 4.17 2.78125 7.81V16.19C2.78125 17.28 2.97125 18.23 3.34125 19.03C4.20125 20.93 6.04125 22 8.59125 22H16.9713C20.6112 22 22.7812 19.83 22.7812 16.19V13.9V7.81C22.7812 4.17 20.6112 2 16.9713 2ZM21.1513 12.5C20.3713 11.83 19.1112 11.83 18.3312 12.5L14.1713 16.07C13.3913 16.74 12.1312 16.74 11.3512 16.07L11.0112 15.79C10.3012 15.17 9.17125 15.11 8.37125 15.65L4.63125 18.16C4.41125 17.6 4.28125 16.95 4.28125 16.19V7.81C4.28125 4.99 5.77125 3.5 8.59125 3.5H16.9713C19.7913 3.5 21.2812 4.99 21.2812 7.81V12.61L21.1513 12.5Z" fill="white"/>
</g>
</g>
</svg>
