<svg width="16" height="16" viewBox="0 0 16 16" fill="none" xmlns="http://www.w3.org/2000/svg">
<g id="vuesax/linear/trash">
<g id="trash">
<path id="Vector" d="M14 3.98667C11.78 3.76667 9.54667 3.65334 7.32 3.65334C6 3.65334 4.68 3.72 3.36 3.85334L2 3.98667" stroke="#BB2C2C" stroke-width="1.5" stroke-linecap="round" stroke-linejoin="round"/>
<path id="Vector_2" d="M5.66663 3.31333L5.81329 2.44C5.91996 1.80666 5.99996 1.33333 7.12663 1.33333H8.87329C9.99996 1.33333 10.0866 1.83333 10.1866 2.44666L10.3333 3.31333" stroke="#BB2C2C" stroke-width="1.5" stroke-linecap="round" stroke-linejoin="round"/>
<path id="Vector_3" d="M12.5667 6.09334L12.1334 12.8067C12.06 13.8533 12 14.6667 10.14 14.6667H5.86002C4.00002 14.6667 3.94002 13.8533 3.86668 12.8067L3.43335 6.09334" stroke="#BB2C2C" stroke-width="1.5" stroke-linecap="round" stroke-linejoin="round"/>
<path id="Vector_4" d="M6.88672 11H9.10672" stroke="#BB2C2C" stroke-width="1.5" stroke-linecap="round" stroke-linejoin="round"/>
<path id="Vector_5" d="M6.33337 8.33333H9.66671" stroke="#BB2C2C" stroke-width="1.5" stroke-linecap="round" stroke-linejoin="round"/>
</g>
</g>
</svg>
