<svg width="87" height="47" viewBox="0 0 87 47" fill="none" xmlns="http://www.w3.org/2000/svg">
<path d="M84.4044 19.2307L67.0358 1.76744C65.9093 0.635739 64.3818 0 62.7891 0C61.1964 0 59.6689 0.635739 58.5424 1.76744L44.798 15.588C44.3296 16.0582 43.6947 16.3224 43.0327 16.3224C42.3707 16.3224 41.7358 16.0582 41.2674 15.588L27.523 1.76744C26.3965 0.635739 24.869 0 23.2763 0C21.6836 0 20.1561 0.635739 19.0296 1.76744L17.6092 3.19513C17.5511 3.25334 17.5051 3.32249 17.4737 3.3986C17.4423 3.47472 17.4261 3.55631 17.4261 3.63871C17.4261 3.72112 17.4423 3.80271 17.4737 3.87882C17.5051 3.95494 17.5511 4.02409 17.6092 4.0823L58.5464 45.2326C59.6728 46.3643 61.2003 47 62.793 47C64.3857 47 65.9132 46.3643 67.0397 45.2326L84.4083 27.7694C85.5334 26.636 86.1649 25.1002 86.1642 23.4992C86.1634 21.8982 85.5305 20.363 84.4044 19.2307ZM74.6192 25.2743L64.5554 35.3935C64.0873 35.8636 63.4528 36.1277 62.7911 36.1277C62.1294 36.1277 61.4948 35.8636 61.0268 35.3935L50.963 25.2743C50.4951 24.8036 50.2323 24.1654 50.2323 23.5C50.2323 22.8346 50.4951 22.1965 50.963 21.7257L61.0268 11.6065C61.4948 11.1364 62.1294 10.8723 62.7911 10.8723C63.4528 10.8723 64.0873 11.1364 64.5554 11.6065L74.6192 21.7257C75.0868 22.1967 75.3492 22.835 75.3489 23.5004C75.3485 24.1658 75.0853 24.8038 74.6172 25.2743H74.6192Z" fill="#001E28"/>
<path d="M29.8866 30.6719L25.1811 35.3956C24.712 35.8661 24.0764 36.1303 23.4138 36.1303C22.7512 36.1303 22.1156 35.8661 21.6465 35.3956L11.5672 25.2804C11.3351 25.0475 11.1509 24.771 11.0252 24.4665C10.8996 24.1621 10.8349 23.8357 10.8349 23.506C10.8349 23.1764 10.8996 22.8501 11.0252 22.5456C11.1509 22.2411 11.3351 21.9646 11.5672 21.7317L19.9338 13.336C19.9921 13.2779 20.0384 13.2088 20.0699 13.1327C20.1015 13.0565 20.1177 12.9749 20.1177 12.8924C20.1177 12.8099 20.1015 12.7283 20.0699 12.6521C20.0384 12.576 19.9921 12.5069 19.9338 12.4488L14.673 7.1611C14.6149 7.10271 14.546 7.0564 14.4701 7.0248C14.3942 6.9932 14.3128 6.97693 14.2307 6.97693C14.1486 6.97693 14.0672 6.9932 13.9913 7.0248C13.9154 7.0564 13.8465 7.10271 13.7884 7.1611L1.76249 19.2367C1.20382 19.7967 0.760567 20.4619 0.458127 21.1944C0.155688 21.9268 0 22.7121 0 23.5051C0 24.2981 0.155688 25.0833 0.458127 25.8158C0.760567 26.5482 1.20382 27.2135 1.76249 27.7734L19.1584 45.2327C20.2877 46.3643 21.8172 46.9997 23.4119 46.9997C25.0065 46.9997 26.536 46.3643 27.6653 45.2327L39.6893 33.1669C39.7476 33.1088 39.7938 33.0398 39.8254 32.9636C39.8569 32.8875 39.8732 32.8058 39.8732 32.7234C39.8732 32.6409 39.8569 32.5592 39.8254 32.4831C39.7938 32.4069 39.7476 32.3379 39.6893 32.2798L38.0877 30.6719C36.9984 29.5821 35.5241 28.9702 33.9871 28.9702C32.4502 28.9702 30.9758 29.5821 29.8866 30.6719Z" fill="#1CAF4B"/>
</svg>
